<svg t="1769178845610" class="icon" viewBox="0 0 1024 1024" version="1.1" xmlns="http://www.w3.org/2000/svg" p-id="12397" width="200" height="200"><path d="M622.933 114.133c17.824 17.325 27.734 41.21 27.734 66.134v665.6c0 51.848-42.052 93.866-93.867 93.866-24.985 0-48.889-9.9-66.133-27.733L320.063 741.396a51.2 51.2 0 0 0-36.204-14.996H217.6c-75.367 0.315-136.533-60.803-136.533-136.533v-153.6c0-75.028 61.166-136.145 136.533-136.534h65.278a51.2 51.2 0 0 0 36.1-14.892l171.689-170.708c36.289-36.88 95.759-36.91 132.266 0z m-84.266 48L362.793 338.007A102.4 102.4 0 0 1 290.384 368H217.6c-37.678 0.382-68.267 30.94-68.267 68.267v153.6c0 37.65 29.98 67.976 67.138 68.266h73.913a102.4 102.4 0 0 1 72.409 29.993L538.667 864a25.72 25.72 0 0 0 18.133 7.467c14.13 0 25.6-11.46 25.6-25.6v-665.6c0-6.636-2.576-13.002-7.467-18.134-10.39-9.968-26.382-9.858-36.266 0z m318.03 93.855C929.739 320.333 972.8 416.231 972.8 519.466c0 103.236-43.061 199.135-116.103 263.48-14.147 12.46-35.715 11.096-48.176-3.05-12.461-14.146-11.096-35.715 3.05-48.175 58.288-51.349 92.962-128.569 92.962-212.254S869.86 358.56 811.571 307.213c-14.146-12.461-15.511-34.03-3.05-48.175 12.461-14.146 34.03-15.512 48.176-3.05zM754.82 355.604c43.97 40.18 69.712 99.323 69.712 162.767 0 63.48-25.771 122.654-69.786 162.836-13.922 12.71-35.512 11.727-48.222-2.195-12.583-13.783-11.745-35.08 1.781-47.838l0.414-0.384 0.89-0.819c29.224-27.166 46.657-67.632 46.657-111.599 0-44.387-17.767-85.205-47.499-112.375-13.915-12.717-14.886-34.307-2.17-48.223 12.717-13.916 34.308-14.888 48.223-2.17z" fill="#ff9626" p-id="12398"></path></svg>