<svg t="1769177786687" class="icon" viewBox="0 0 1024 1024" version="1.1" xmlns="http://www.w3.org/2000/svg" p-id="25518" width="200" height="200"><path d="M965.74577778 274.88711111c-6.144-11.94666667-18.54577778-20.25244445-32.88177778-20.25244444-20.25244445 0-36.63644445 16.384-36.63644445 36.52266666 0 6.82666667 1.93422222 13.312 5.23377778 18.77333334l-0.11377778 0.11377778c30.60622222 59.61955555 47.90044445 127.20355555 47.90044445 198.76977777 0 240.75377778-195.24266667 435.99644445-435.99644445 435.99644445S77.14133333 749.568 77.14133333 508.81422222 272.384 72.93155555 513.13777778 72.93155555c71.11111111 0 138.24 17.06666667 197.51822222 47.21777778l0.22755555-0.45511111c5.23377778 2.95822222 11.37777778 4.66488889 17.86311112 4.66488889 20.25244445 0 36.63644445-16.384 36.63644444-36.52266666 0-14.90488889-8.98844445-27.76177778-21.95911111-33.45066667C674.24711111 19.22844445 596.08177778-0.56888889 513.13777778-0.56888889 231.76533333-0.56888889 3.75466667 227.55555555 3.75466667 508.81422222S231.76533333 1018.19733333 513.13777778 1018.19733333s509.38311111-228.01066667 509.38311111-509.38311111c0-84.30933333-20.48-163.84-56.77511111-233.92711111z" fill="#ff9626" p-id="25519"></path><path d="M367.95733333 330.18311111V694.04444445c0 19.91111111 16.27022222 36.29511111 36.29511112 36.2951111 20.02488889 0 36.40888889-16.384 36.2951111-36.2951111V330.18311111c0-19.91111111-16.27022222-36.29511111-36.2951111-36.29511111-19.91111111 0-36.29511111 16.27022222-36.29511112 36.29511111zM588.11733333 330.18311111V694.04444445c0 19.91111111 16.27022222 36.29511111 36.29511112 36.2951111 19.91111111 0 36.29511111-16.384 36.2951111-36.2951111V330.18311111c0-19.91111111-16.27022222-36.29511111-36.2951111-36.29511111-19.91111111 0-36.29511111 16.27022222-36.29511112 36.29511111z" fill="#ff9626" p-id="25520"></path><path d="M808.61866667 177.152a36.63644445 36.52266667 0 1 0 73.27288888 0 36.63644445 36.52266667 0 1 0-73.27288888 0Z" fill="#ff9626" p-id="25521"></path></svg>