<svg t="1769010608125" class="icon" viewBox="0 0 1024 1024" version="1.1" xmlns="http://www.w3.org/2000/svg" p-id="25704" width="200" height="200"><path d="M298.6 129c-9.8 0-17.8 8-17.8 17.8v730.3c0 9.8 8 17.8 17.8 17.8s17.8-8 17.8-17.8V146.8c0-9.8-8-17.8-17.8-17.8zM191.9 296.4c-9.8 0-17.8 8-17.8 17.8v395.6c0 9.8 8 17.8 17.8 17.8s17.8-8 17.8-17.8V314.2c0-9.8-8-17.8-17.8-17.8zM85.2 415.1c-9.8 0-17.8 8-17.8 17.8v158.2c0 9.8 8 17.8 17.8 17.8s17.8-8 17.8-17.8V432.9c0-9.8-8-17.8-17.8-17.8zM405.3 296.4c-9.8 0-17.8 8-17.8 17.8v395.6c0 9.8 8 17.8 17.8 17.8s17.8-8 17.8-17.8V314.2c0-9.8-8-17.8-17.8-17.8zM512 415.1c-9.8 0-17.8 8-17.8 17.8v158.2c0 9.8 8 17.8 17.8 17.8s17.8-8 17.8-17.8V432.9c0-9.8-8-17.8-17.8-17.8zM618.7 296.4c-9.8 0-17.8 8-17.8 17.8v395.6c0 9.8 8 17.8 17.8 17.8s17.8-8 17.8-17.8V314.2c0-9.8-8-17.8-17.8-17.8zM725.4 415.1c-9.8 0-17.8 8-17.8 17.8v158.2c0 9.8 8 17.8 17.8 17.8s17.8-8 17.8-17.8V432.9c0-9.8-8-17.8-17.8-17.8zM832.1 296.4c-9.8 0-17.8 8-17.8 17.8v395.6c0 9.8 8 17.8 17.8 17.8s17.8-8 17.8-17.8V314.2c0-9.8-8-17.8-17.8-17.8zM938.8 415.1c-9.8 0-17.8 8-17.8 17.8v158.2c0 9.8 8 17.8 17.8 17.8s17.8-8 17.8-17.8V432.9c0-9.8-8-17.8-17.8-17.8z" fill="#ff9626" p-id="25705"></path></svg>