<svg t="1768400579703" class="icon" viewBox="0 0 1024 1024" version="1.1" xmlns="http://www.w3.org/2000/svg" p-id="15283" width="200" height="200"><path d="M611.2 236.8v-8c0-30.4-24-56-56-56h-81.6c-30.4 0-56 24-56 56 0 4.8-3.2 8-8 8h-238.4c-4.8 0-8 3.2-8 8v19.2c0 4.8 3.2 8 8 8h686.4c4.8 0 8-3.2 8-8v-19.2c0-4.8-3.2-8-8-8h-246.4z" fill="#91A8B0" p-id="15284"></path><path d="M252.8 792c0 64 52.8 116.8 116.8 116.8h291.2c64 0 116.8-52.8 116.8-116.8l38.4-436.8c1.6-16-11.2-28.8-27.2-28.8H240c-16 0-28.8 14.4-27.2 28.8l40 436.8z" fill="#F56767" p-id="15285"></path><path d="M515.2 729.6c-43.2 0-78.4-35.2-78.4-78.4v-65.6c0-43.2 35.2-78.4 78.4-78.4s78.4 35.2 78.4 78.4v65.6c0 43.2-35.2 78.4-78.4 78.4z" fill="#FFFFFF" p-id="15286"></path></svg>