<svg t="1770115529645" class="icon" viewBox="0 0 1024 1024" version="1.1" xmlns="http://www.w3.org/2000/svg" p-id="6189" width="200" height="200"><path d="M722.399869 159.83222a39.999975 39.999975 0 0 1-56.799965 56.335965l-123.303923-124.319922A39.599975 39.599975 0 0 0 513.999999 80.00027a39.599975 39.599975 0 0 0-28.287983 11.839993L362.400094 216.168185a39.999975 39.999975 0 0 1-56.799965-56.335965l123.303923-124.319922A119.047926 119.047926 0 0 1 513.999999 0.00032c32.15998 0 62.383961 12.607992 85.095947 35.503978L722.399869 159.84022z m-56.799965 647.999595l-123.303923 124.319922A39.599975 39.599975 0 0 1 513.999999 943.99973a39.599975 39.599975 0 0 1-28.287983-11.839993L362.400094 807.823815a39.999975 39.999975 0 0 0-56.799965 56.335965l123.303923 124.319922A119.047926 119.047926 0 0 0 513.999999 1023.99968c32.15998 0 62.383961-12.607992 85.095947-35.511978l123.303923-124.319922a39.999975 39.999975 0 0 0-56.799965-56.335965zM216.168185 360.400095a39.999975 39.999975 0 1 0-56.335965-56.799965L35.512298 426.904053A119.047926 119.047926 0 0 0 0.00032 512c0 32.15998 12.607992 62.383961 35.503978 85.095947L159.84022 720.39987a39.871975 39.871975 0 0 0 28.159983 11.599993 39.999975 39.999975 0 0 0 28.167982-68.399958l-124.319922-123.303923A39.599975 39.599975 0 0 1 80.00027 512a39.599975 39.599975 0 0 1 11.839993-28.287982L216.168185 360.400095z m772.319517 66.503958l-124.319922-123.303923a39.999975 39.999975 0 1 0-56.335965 56.799965l124.319922 123.303923A39.599975 39.599975 0 0 1 943.99973 512a39.599975 39.599975 0 0 1-11.839993 28.287982L807.831815 663.599905a39.999975 39.999975 0 0 0 56.335965 56.799965l124.319922-123.303923A119.039926 119.039926 0 0 0 1023.99968 512c0-32.15998-12.607992-62.383961-35.503978-85.095947zM513.999999 651.999913c-77.199952 0-139.999913-62.799961-139.999913-139.999913s62.799961-139.999913 139.999913-139.999913 139.999913 62.799961 139.999912 139.999913-62.799961 139.999913-139.999912 139.999913z m0-79.99995c33.087979 0 59.999963-26.911983 59.999962-59.999963s-26.911983-59.999963-59.999962-59.999963-59.999963 26.911983-59.999963 59.999963 26.911983 59.999963 59.999963 59.999963z" fill="#ff9626" p-id="6190"></path></svg>