<svg t="1769010653626" class="icon" viewBox="0 0 1024 1024" version="1.1" xmlns="http://www.w3.org/2000/svg" p-id="26798" width="200" height="200"><path d="M553.9 726.52c-5.12 0-10.24-1.95-14.14-5.86l-62.1-62.1-17.4 17.4a20.006 20.006 0 0 1-14.14 5.86h-38.41c-11.05 0-20-8.95-20-20s8.95-20 20-20h30.13l25.68-25.68c7.81-7.81 20.47-7.81 28.28 0l62.1 62.1 24.29-24.29c3.75-3.75 8.84-5.86 14.14-5.86h33.93c11.05 0 20 8.95 20 20s-8.95 20-20 20h-25.65l-32.57 32.57a19.92 19.92 0 0 1-14.14 5.86z" fill="#ffffff" p-id="26799" data-spm-anchor-id="a313x.search_index.0.i28.55c33a81PgOfnu" class="selected"></path><path d="M220.89 677.69c-11.05 0-20-8.95-20-20V485.34c0-39.02 8.48-76.87 25.22-112.48 16.08-34.23 39.07-64.94 68.31-91.27 59.72-53.76 138.99-83.37 223.19-83.37s163.47 29.61 223.19 83.37c29.24 26.32 52.23 57.03 68.31 91.27 16.73 35.61 25.22 73.46 25.22 112.48v162.49c0 11.05-8.95 20-20 20s-20-8.95-20-20V485.34c0-136.26-124.14-247.12-276.72-247.12S240.89 349.08 240.89 485.34v172.35c0 11.05-8.95 20-20 20z" fill="#ffffff" p-id="26800" data-spm-anchor-id="a313x.search_index.0.i27.55c33a81PgOfnu" class="selected"></path><path d="M197 531.68m81.52 0l9.58 0q81.52 0 81.52 81.52l0 113.76q0 81.52-81.52 81.52l-9.58 0q-81.52 0-81.52-81.52l0-113.76q0-81.52 81.52-81.52Z" fill="#8EC9FF" p-id="26801"></path><path d="M664.38 531.68m81.52 0l9.58 0q81.52 0 81.52 81.52l0 113.76q0 81.52-81.52 81.52l-9.58 0q-81.52 0-81.52-81.52l0-113.76q0-81.52 81.52-81.52Z" fill="#8EC9FF" p-id="26802"></path></svg>