<svg t="1768232293790" class="icon" viewBox="0 0 1024 1024" version="1.1" xmlns="http://www.w3.org/2000/svg" p-id="2937" width="200" height="200"><path d="M349.184 955.392L136.192 820.224l117.76-200.704 143.36 92.16 267.264-454.656 70.656 41.984-386.048 656.384z m-102.4-161.792l74.752 47.104 34.816-58.368-73.728-48.128-35.84 59.392z" fill="#437DFF" p-id="2938"></path><path d="M674.816 955.392L288.768 299.008l70.656-41.984 267.264 454.656 143.36-92.16 117.76 200.704-212.992 135.168z m-6.144-173.056l34.816 58.368 74.752-47.104-34.816-59.392-74.752 48.128z" fill="#437DFF" p-id="2939"></path><path d="M481.28 68.608h61.44v61.44h-61.44zM481.28 209.92h61.44v61.44h-61.44zM481.28 352.256h61.44v61.44h-61.44z" fill="#63F7DE" p-id="2940"></path></svg>